<?xml version="1.0" encoding="utf-8"?>
<!-- Generator: Adobe Illustrator 23.0.1, SVG Export Plug-In . SVG Version: 6.00 Build 0)  -->
<svg version="1.1"
	 id="svg2985" inkscape:version="0.48.4 r9939" sodipodi:docname="Flag_of_the_King_of_Joseon_(Fringeless).svg" xmlns:cc="http://creativecommons.org/ns#" xmlns:dc="http://purl.org/dc/elements/1.1/" xmlns:inkscape="http://www.inkscape.org/namespaces/inkscape" xmlns:rdf="http://www.w3.org/1999/02/22-rdf-syntax-ns#" xmlns:sodipodi="http://sodipodi.sourceforge.net/DTD/sodipodi-0.dtd" xmlns:svg="http://www.w3.org/2000/svg"
	 xmlns="http://www.w3.org/2000/svg" xmlns:xlink="http://www.w3.org/1999/xlink" x="0px" y="0px" viewBox="0 0 300 300"
	 style="enable-background:new 0 0 300 300;" xml:space="preserve">
<style type="text/css">
	.st0{fill:#C00D45;}
	.st1{fill:#FFFFFF;}
	.st2{fill:#F0AD73;}
</style>
<sodipodi:namedview  bordercolor="#666666" borderopacity="1" fit-margin-bottom="0" fit-margin-left="0" fit-margin-right="0" fit-margin-top="0" gridtolerance="10" guidetolerance="10" id="namedview58" inkscape:current-layer="svg2985" inkscape:cx="574.89849" inkscape:cy="374.68323" inkscape:guide-bbox="true" inkscape:pageopacity="0" inkscape:pageshadow="2" inkscape:window-height="701" inkscape:window-maximized="0" inkscape:window-width="913" inkscape:window-x="596" inkscape:window-y="232" inkscape:zoom="21.475475" objecttolerance="10" pagecolor="#ffffff" showgrid="false" showguides="true">
	</sodipodi:namedview>
<title  id="title3101">Flag of the king of Joseon</title>
<g id="layer5" transform="translate(-81.722468,-246.53181)">
</g>
<g id="layer4" transform="translate(-144.30548,-235.35627)">
	<rect id="rect4468-5" x="144.3" y="235.4" class="st0" width="300" height="300"/>
</g>
<g id="layer2" transform="translate(-144.30548,-235.35627)">
	<path id="path3015" inkscape:connector-curvature="0" class="st1" d="M299.6,268c67.7,0,122.6,54.9,122.6,122.6
		s-54.9,122.6-122.6,122.6V390.6V268z"/>
	<path id="path3015-1" inkscape:connector-curvature="0" class="st2" d="M299.6,513.3c-67.7,0-122.6-54.9-122.6-122.6
		S231.9,268,299.6,268"/>
	<path id="path3015-1-8" inkscape:connector-curvature="0" class="st1" d="M299.6,479.4c-49,0-88.8-39.7-88.8-88.8
		s39.7-88.8,88.8-88.8"/>
	<path id="path3015-1-8-5" inkscape:connector-curvature="0" class="st2" d="M299.6,301.9c49,0,88.8,39.7,88.8,88.8
		s-39.7,88.8-88.8,88.8v-88.8V301.9z"/>
	<path id="path3015-1-8-5-4" inkscape:connector-curvature="0" class="st1" d="M299.6,333.9c31.4,0,56.8,25.4,56.8,56.8
		s-25.4,56.8-56.8,56.8v-56.8V333.9z"/>
	<path id="path3015-1-8-5-4-8" inkscape:connector-curvature="0" class="st2" d="M299.6,447.4c-31.4,0-56.8-25.4-56.8-56.8
		s25.4-56.8,56.8-56.8v56.8V447.4z"/>
	<path id="path3015-1-8-5-4-1" inkscape:connector-curvature="0" class="st2" d="M299.6,363c15.3,0,27.7,12.4,27.7,27.7
		c0,15.3-12.4,27.7-27.7,27.7v-27.7V363z"/>
	<path id="path3015-1-8-5-4-1-2" inkscape:connector-curvature="0" class="st1" d="M299.6,418.3c-15.3,0-27.7-12.4-27.7-27.7
		c0-15.3,12.4-27.7,27.7-27.7"/>
</g>
</svg>
